<svg width="28" height="29" viewBox="0 0 28 29" fill="none" xmlns="http://www.w3.org/2000/svg">
    <path d="M8.43406 13.5525H19.1372L5.52281 7.72999L8.43406 13.5525ZM8.43406 15.6075L5.52281 21.4728L19.1372 15.6075H8.43406ZM4.62375 5.11842L23.8038 13.3384C24.3175 13.5525 24.66 14.0662 24.66 14.6228C24.66 15.1365 24.3175 15.6503 23.8038 15.8644L4.62375 24.0844C4.11 24.2984 3.46781 24.17 3.0825 23.7419C2.69719 23.3566 2.61156 22.7144 2.86844 22.2006L6.67875 14.58L2.86844 7.00217C2.61156 6.48842 2.69719 5.84624 3.0825 5.41811C3.46781 5.0328 4.11 4.90436 4.62375 5.11842Z"
          fill="white"/>
</svg>
