<svg width="61" height="61" viewBox="0 0 61 61" fill="none" xmlns="http://www.w3.org/2000/svg">
    <circle cx="30.5" cy="30.5" r="30" fill="url(#paint0_linear_107_55)" stroke="white"/>
    <path d="M10.0173 28.3755C15.2184 29.3582 20.6779 29.4823 25.9268 28.738C28.1159 28.4162 30.5011 27.5731 31.3074 25.7919C31.5011 25.3791 31.604 24.9449 31.6447 24.4952C31.7308 23.7781 31.4916 23.0745 30.903 22.5124C30.0753 21.6964 28.6207 21.3592 27.3551 21.6441C25.8335 21.9697 24.7474 23.0377 24.4435 24.2743C24.1565 23.2335 24.6732 22.0124 25.635 21.2448C26.4962 20.5335 27.7355 20.1245 28.97 20.1168C31.6519 20.0838 33.9127 21.8108 34.14 23.9622C34.3409 25.8752 33.4175 27.8096 31.5035 28.99C29.9867 29.9513 28.0991 30.3719 26.2355 30.5037C20.8956 30.9747 14.8332 30.339 10.0149 28.3755H10.0173Z"
          fill="white"/>
    <path d="M18.6228 35.2252C19.7281 35.0372 20.8453 34.9286 21.9698 34.855C24.5392 34.7019 27.1326 34.7406 29.6686 35.2407C31.6399 35.607 33.7069 36.3862 34.4223 38.0647C34.7644 38.871 34.829 39.9002 34.4797 40.7007C33.9223 42.0342 32.2045 42.9529 30.4915 42.7881C28.6231 42.6505 27.08 41.1949 27.5991 39.7005C27.6852 39.9254 27.7929 40.1308 27.9293 40.315C28.3958 40.9662 29.3025 41.4159 30.2092 41.381C31.1279 41.3655 31.982 40.8325 32.1638 40.1153C32.2236 39.9021 32.2069 39.6831 32.1806 39.468C32.1351 39.09 32.0203 38.7198 31.7619 38.4116C31.1686 37.7177 29.9437 37.3262 28.9939 37.0084L28.6279 36.8921L28.2618 36.7932C25.1541 36.0179 21.8454 35.6942 18.6252 35.2213L18.6228 35.2252Z"
          fill="white"/>
    <path d="M35.2261 27.3889C36.3027 26.1988 38.2812 25.2297 39.9822 24.7297C40.5086 24.5766 41.0732 24.4486 41.645 24.375C41.6928 24.3692 41.7646 24.3575 41.8124 24.3498C42.4273 24.2548 43.1546 24.0842 43.6259 23.7974C44.1594 23.4737 44.3651 23.0531 44.4632 22.5027C44.5039 22.2352 44.5398 21.9561 44.4656 21.6905C44.3364 21.1827 43.9106 20.7486 43.3316 20.514C41.7694 19.9074 40.0875 20.7815 39.7047 22.1053C39.3746 21.0567 40.1497 19.9132 41.334 19.4325C42.9943 18.727 45.0853 19.262 46.0494 20.5528C46.3772 20.985 46.5733 21.4909 46.6068 22.0007C46.614 22.1131 46.6164 22.2332 46.6164 22.3457C46.5638 24.7762 44.4728 25.879 41.6785 25.8752C40.1354 25.9488 38.6258 26.2861 37.1496 26.7067C36.4893 26.9024 35.8577 27.1137 35.2285 27.385L35.2261 27.3889Z"
          fill="white"/>
    <path d="M10.4384 30.8913C13.8356 31.8837 17.4673 32.2771 21.0655 32.281C25.4292 32.2636 29.8073 31.7422 33.6232 30.0075C34.683 29.5578 35.7261 29.0674 36.8721 28.6953C39.3124 27.8968 42.1665 27.7921 44.6474 28.548C46.6236 29.1392 48.2767 30.5037 48.7911 32.1783C49.0495 32.9885 49.1069 33.8393 48.9227 34.6611C48.6021 36.0411 47.4753 37.2816 45.925 37.9057C44.1067 38.6674 41.8029 38.3573 40.42 37.1362C39.5803 36.4133 39.1305 35.3666 39.2908 34.3898C39.4272 35.3085 40.0157 36.1574 40.9105 36.7021C43.1737 38.0588 46.0853 37.111 46.8532 34.9829C47.1188 34.2386 47.0063 33.3974 46.7121 32.6822C46.3365 31.7771 45.5135 31.0502 44.4584 30.6374C42.4727 29.8699 39.877 29.9706 37.8362 30.6471C36.8075 30.9824 35.817 31.4398 34.7931 31.8546C33.9845 32.1841 33.128 32.5039 32.2643 32.7597C29.104 33.7192 25.6661 33.9362 22.3239 33.787C19.9267 33.6804 17.5414 33.3335 15.2591 32.7307C13.5724 32.2752 11.9073 31.7073 10.4336 30.8932L10.4384 30.8913Z"
          fill="white"/>
    <defs>
        <linearGradient id="paint0_linear_107_55" x1="30.5" y1="0" x2="30.5" y2="61" gradientUnits="userSpaceOnUse">
            <stop stop-color="#1CAFEB"/>
            <stop offset="1" stop-color="#74CFF4"/>
        </linearGradient>
    </defs>
</svg>
