<svg width="61" height="61" viewBox="0 0 61 61" fill="none" xmlns="http://www.w3.org/2000/svg">
    <circle cx="30.5" cy="30.5" r="30" fill="url(#paint0_linear_107_79)" stroke="white"/>
    <path d="M50.1598 33.1022C49.8335 33.0694 49.5076 33.0388 49.1813 33.0099C48.9473 32.9886 48.433 32.9439 48.2028 32.9256C46.4564 32.7801 44.7083 32.6584 42.9598 32.5495C42.6688 31.7338 42.3204 30.7734 42.0536 30.0373L41.6877 29.0377C41.5856 28.7624 41.3712 28.5258 41.0781 28.4076C40.4863 28.1646 39.8218 28.499 39.6321 29.1033C39.2602 30.0224 38.5412 31.804 38.1256 32.858C37.3249 29.7011 36.4932 26.5349 35.65 23.4184C35.5075 22.8887 35.2156 21.8355 35.0736 21.3045L34.7817 20.2484C34.6303 19.7157 34.2189 19.2561 33.6509 19.0782C32.7545 18.7974 31.8003 19.2965 31.5195 20.1926C31.5191 20.1935 31.1124 21.4943 31.1115 21.4947C29.6378 26.2396 28.1628 31.0776 26.7598 35.8382C26.6602 36.1744 26.5356 36.5986 26.3994 37.0646C25.1125 33.9447 23.7937 30.8028 22.4829 27.7425C22.1911 26.9042 21.0373 26.8106 20.6318 27.6157L20.0035 28.8888C19.4615 30.0007 18.8578 31.2163 18.3137 32.3469C15.3242 32.5044 12.0913 32.6882 9.14817 32.9235C9.07074 32.9299 9.00692 32.9912 9.00054 33.0711C8.99331 33.1601 9.05925 33.2379 9.14817 33.2452C9.55063 33.2779 9.95308 33.3094 10.3551 33.3379C11.5544 33.4264 12.778 33.5047 13.9768 33.5792C15.1748 33.6532 17.6083 33.786 18.8055 33.8477C19.0509 33.86 19.2964 33.7418 19.4343 33.5175C20.0201 32.5576 20.6608 31.5185 21.2645 30.5219C22.1553 33.155 23.1555 36.0523 24.0664 38.6504C24.4637 39.778 24.8598 40.9061 25.2618 42.032C25.4082 42.4349 25.7323 42.7766 26.1701 42.9234C26.9542 43.1889 27.8029 42.74 28.0344 41.9477L28.9018 39.3636C30.3053 35.1625 31.6965 30.8891 33.0519 26.6391C33.3369 27.6323 33.6237 28.6207 33.9066 29.5849C34.7115 32.3367 35.5879 35.2451 36.4337 37.9794C36.788 39.367 38.7297 39.4513 39.1819 38.0717C39.7435 36.3025 40.3438 34.366 40.916 32.4827C40.9645 32.581 41.0117 32.6767 41.0568 32.7682L41.5291 33.7226C41.6588 34.0456 41.9596 34.2779 42.3318 34.2545C44.2901 34.1353 46.2475 34.0022 48.2028 33.8396C48.4478 33.8192 48.9358 33.7792 49.1813 33.7554C49.5076 33.7269 49.8335 33.6958 50.1598 33.663C50.2908 33.6498 50.3989 33.5464 50.4125 33.4103C50.4282 33.255 50.3151 33.1167 50.1598 33.1014V33.1022Z"
          fill="white"/>
    <defs>
        <linearGradient id="paint0_linear_107_79" x1="30.5" y1="0" x2="30.5" y2="61" gradientUnits="userSpaceOnUse">
            <stop stop-color="#FF103B"/>
            <stop offset="1" stop-color="#FFB5B5"/>
        </linearGradient>
    </defs>
</svg>
