<svg width="41" height="42" viewBox="0 0 41 42" fill="none" xmlns="http://www.w3.org/2000/svg">
    <path fill-rule="evenodd" clip-rule="evenodd"
          d="M28.2194 9.70641C26.3756 9.70641 24.8809 11.2011 24.8809 13.0449V20.9676C24.8809 23.6095 22.7393 25.7511 20.0974 25.7511H12.1747C10.441 25.7511 9.03553 27.1566 9.03553 28.8903C9.03553 30.624 10.441 32.0295 12.1747 32.0295H20.3632C22.8582 32.0295 24.8809 34.0522 24.8809 36.5473C24.8809 39.0424 22.8582 41.065 20.3632 41.065H12.1747C5.45079 41.065 0 35.6142 0 28.8903C0 22.1664 5.4508 16.7156 12.1747 16.7156H15.8454V13.0449C15.8454 6.21091 21.3854 0.670868 28.2194 0.670868C35.0534 0.670868 40.5934 6.21091 40.5934 13.0449L40.5934 36.5473C40.5934 39.0424 38.5708 41.065 36.0757 41.065C33.5806 41.065 31.5579 39.0424 31.5579 36.5473L31.5579 13.0449C31.5579 11.2011 30.0632 9.70641 28.2194 9.70641Z"
          fill="#6632DD"/>
</svg>

