<svg width="232" height="42" viewBox="0 0 232 42" fill="none" xmlns="http://www.w3.org/2000/svg">
    <path fill-rule="evenodd" clip-rule="evenodd"
          d="M28.2194 9.70641C26.3756 9.70641 24.8809 11.2011 24.8809 13.0449V20.9676C24.8809 23.6095 22.7393 25.7511 20.0974 25.7511H12.1747C10.441 25.7511 9.03553 27.1566 9.03553 28.8903C9.03553 30.624 10.441 32.0295 12.1747 32.0295H20.3632C22.8582 32.0295 24.8809 34.0522 24.8809 36.5473C24.8809 39.0424 22.8582 41.065 20.3632 41.065H12.1747C5.45079 41.065 0 35.6142 0 28.8903C0 22.1664 5.4508 16.7156 12.1747 16.7156H15.8454V13.0449C15.8454 6.21091 21.3854 0.670868 28.2194 0.670868C35.0534 0.670868 40.5934 6.21091 40.5934 13.0449L40.5934 36.5473C40.5934 39.0424 38.5708 41.065 36.0757 41.065C33.5806 41.065 31.5579 39.0424 31.5579 36.5473L31.5579 13.0449C31.5579 11.2011 30.0632 9.70641 28.2194 9.70641Z"
          fill="#6632DD"/>
    <path d="M224.825 18.4944C223.91 18.4944 223.198 18.781 222.689 19.3543C222.19 19.9276 221.876 20.7043 221.746 21.6844H227.89C227.826 20.6395 227.507 19.849 226.933 19.3127C226.369 18.7672 225.667 18.4944 224.825 18.4944ZM224.825 15.2351C226.083 15.2351 227.215 15.4709 228.223 15.9424C229.231 16.414 230.063 17.1583 230.72 18.1754C231.312 19.0723 231.695 20.1125 231.871 21.296C231.973 21.9895 232.014 22.9881 231.996 24.2918H221.649C221.705 25.8082 222.181 26.8715 223.078 27.4818C223.623 27.8609 224.28 28.0504 225.047 28.0504C225.861 28.0504 226.522 27.8193 227.03 27.357C227.308 27.1073 227.553 26.7606 227.766 26.3168H231.802C231.7 27.2136 231.233 28.1244 230.401 29.049C229.106 30.5192 227.294 31.2543 224.964 31.2543C223.041 31.2543 221.344 30.6348 219.874 29.3958C218.404 28.1568 217.669 26.1411 217.669 23.3487C217.669 20.732 218.33 18.7256 219.652 17.3294C220.983 15.9332 222.708 15.2351 224.825 15.2351Z"
          fill="#6632DD"/>
    <path d="M207.849 18.5915V15.776H209.957V11.5597H213.868V15.776H216.323V18.5915H213.868V26.5803C213.868 27.1998 213.947 27.5881 214.104 27.7453C214.261 27.8933 214.742 27.9672 215.547 27.9672C215.667 27.9672 215.792 27.9672 215.921 27.9672C216.06 27.958 216.194 27.9487 216.323 27.9395V30.8937L214.451 30.963C212.583 31.0278 211.307 30.7041 210.623 29.9922C210.179 29.5391 209.957 28.841 209.957 27.8979V18.5915H207.849Z"
          fill="#6632DD"/>
    <path d="M198.82 27.9672C199.976 27.9672 200.863 27.5558 201.483 26.7329C202.102 25.9099 202.412 24.7403 202.412 23.2239C202.412 21.7075 202.102 20.5425 201.483 19.7288C200.863 18.9059 199.976 18.4944 198.82 18.4944C197.664 18.4944 196.772 18.9059 196.143 19.7288C195.524 20.5425 195.214 21.7075 195.214 23.2239C195.214 24.7403 195.524 25.9099 196.143 26.7329C196.772 27.5558 197.664 27.9672 198.82 27.9672ZM206.559 23.2239C206.559 25.443 205.921 27.3431 204.645 28.9242C203.369 30.4961 201.432 31.282 198.834 31.282C196.236 31.282 194.299 30.4961 193.023 28.9242C191.747 27.3431 191.109 25.443 191.109 23.2239C191.109 21.0418 191.747 19.1509 193.023 17.5513C194.299 15.9517 196.236 15.1519 198.834 15.1519C201.432 15.1519 203.369 15.9517 204.645 17.5513C205.921 19.1509 206.559 21.0418 206.559 23.2239Z"
          fill="#6632DD"/>
    <path d="M183.66 15.3044C184.326 15.3044 184.983 15.4339 185.63 15.6928C186.277 15.9517 186.864 16.4047 187.391 17.052C187.817 17.579 188.103 18.2262 188.251 18.9937C188.344 19.5022 188.39 20.2466 188.39 21.2267L188.362 30.755H184.312V21.1296C184.312 20.5563 184.22 20.0847 184.035 19.7149C183.684 19.0122 183.036 18.6608 182.093 18.6608C181.002 18.6608 180.249 19.1139 179.832 20.02C179.62 20.5008 179.513 21.0787 179.513 21.7537V30.755H175.533V21.7537C175.533 20.8568 175.44 20.2049 175.256 19.7981C174.923 19.0677 174.271 18.7024 173.3 18.7024C172.172 18.7024 171.414 19.0677 171.025 19.7981C170.813 20.2142 170.706 20.8337 170.706 21.6566V30.755H166.698V15.665H170.54V17.8703C171.03 17.0843 171.492 16.5249 171.927 16.1921C172.694 15.6003 173.688 15.3044 174.909 15.3044C176.065 15.3044 176.998 15.5587 177.71 16.0672C178.284 16.5388 178.718 17.1444 179.014 17.8841C179.532 16.9965 180.175 16.3446 180.942 15.9285C181.756 15.5125 182.662 15.3044 183.66 15.3044Z"
          fill="#6632DD"/>
    <path d="M163.259 13.9314H152.441V18.2725H162.371V21.8231H152.441V27.0796H163.758V30.755H148.266V10.3114H163.259V13.9314Z"
          fill="#6632DD"/>
    <path d="M139.445 15.3044C140.11 15.3044 140.767 15.4339 141.414 15.6928C142.061 15.9517 142.648 16.4047 143.175 17.052C143.601 17.579 143.887 18.2262 144.035 18.9937C144.128 19.5022 144.174 20.2466 144.174 21.2267L144.146 30.755H140.096V21.1296C140.096 20.5563 140.004 20.0847 139.819 19.7149C139.468 19.0122 138.82 18.6608 137.877 18.6608C136.786 18.6608 136.033 19.1139 135.617 20.02C135.404 20.5008 135.298 21.0787 135.298 21.7537V30.755H131.317V21.7537C131.317 20.8568 131.225 20.2049 131.04 19.7981C130.707 19.0677 130.055 18.7024 129.084 18.7024C127.956 18.7024 127.198 19.0677 126.81 19.7981C126.597 20.2142 126.491 20.8337 126.491 21.6566V30.755H122.482V15.665H126.324V17.8703C126.814 17.0843 127.276 16.5249 127.711 16.1921C128.478 15.6003 129.472 15.3044 130.693 15.3044C131.849 15.3044 132.783 15.5587 133.495 16.0672C134.068 16.5388 134.502 17.1444 134.798 17.8841C135.316 16.9965 135.959 16.3446 136.726 15.9285C137.54 15.5125 138.446 15.3044 139.445 15.3044Z"
          fill="white"/>
    <path d="M115.076 23.4042C114.826 23.5614 114.572 23.6908 114.313 23.7925C114.064 23.885 113.717 23.9728 113.273 24.0561L112.385 24.2225C111.553 24.3704 110.957 24.5507 110.596 24.7634C109.986 25.124 109.681 25.6834 109.681 26.4416C109.681 27.1166 109.866 27.6066 110.236 27.9118C110.615 28.2076 111.072 28.3556 111.609 28.3556C112.459 28.3556 113.241 28.1059 113.953 27.6066C114.674 27.1073 115.048 26.1966 115.076 24.8744V23.4042ZM112.677 21.5596C113.407 21.4671 113.93 21.3515 114.244 21.2128C114.808 20.9724 115.09 20.5979 115.09 20.0894C115.09 19.4699 114.873 19.0446 114.438 18.8134C114.013 18.573 113.384 18.4528 112.552 18.4528C111.618 18.4528 110.957 18.684 110.569 19.1463C110.291 19.4884 110.106 19.9507 110.014 20.5332H106.2C106.283 19.211 106.653 18.1246 107.309 17.2739C108.354 15.9424 110.148 15.2767 112.691 15.2767C114.346 15.2767 115.816 15.6049 117.101 16.2614C118.386 16.9179 119.029 18.1569 119.029 19.9784V26.9132C119.029 27.394 119.038 27.9765 119.057 28.6607C119.084 29.1785 119.163 29.5299 119.292 29.7148C119.422 29.8997 119.616 30.0523 119.875 30.1725V30.755H115.575C115.455 30.4499 115.372 30.1632 115.326 29.8951C115.28 29.627 115.243 29.3218 115.215 28.9797C114.669 29.5715 114.041 30.0754 113.329 30.4915C112.478 30.9815 111.516 31.2266 110.444 31.2266C109.075 31.2266 107.943 30.8382 107.046 30.0615C106.158 29.2756 105.714 28.166 105.714 26.7329C105.714 24.8744 106.431 23.529 107.864 22.6969C108.65 22.2438 109.806 21.9202 111.331 21.726L112.677 21.5596Z"
          fill="white"/>
    <path d="M96.8933 18.4944C95.9779 18.4944 95.2659 18.781 94.7574 19.3543C94.2581 19.9276 93.9437 20.7043 93.8142 21.6844H99.9584C99.8937 20.6395 99.5747 19.849 99.0014 19.3127C98.4374 18.7672 97.7347 18.4944 96.8933 18.4944ZM96.8933 15.2351C98.1508 15.2351 99.2834 15.4709 100.291 15.9424C101.299 16.414 102.131 17.1583 102.788 18.1754C103.38 19.0723 103.763 20.1125 103.939 21.296C104.041 21.9895 104.082 22.9881 104.064 24.2918H93.7172C93.7726 25.8082 94.2488 26.8715 95.1457 27.4818C95.6912 27.8609 96.3477 28.0504 97.1152 28.0504C97.9288 28.0504 98.59 27.8193 99.0985 27.357C99.3759 27.1073 99.6209 26.7606 99.8336 26.3168H103.87C103.768 27.2136 103.301 28.1244 102.469 29.049C101.174 30.5192 99.362 31.2543 97.032 31.2543C95.1087 31.2543 93.412 30.6348 91.9419 29.3958C90.4717 28.1568 89.7366 26.1411 89.7366 23.3487C89.7366 20.732 90.3977 18.7256 91.72 17.3294C93.0514 15.9332 94.7759 15.2351 96.8933 15.2351Z"
          fill="white"/>
    <path d="M88.0722 15.2767C88.1462 15.2767 88.2063 15.2813 88.2525 15.2906C88.308 15.2906 88.4236 15.2952 88.5992 15.3044V19.3543C88.3496 19.3266 88.1277 19.3081 87.9335 19.2988C87.7393 19.2896 87.5821 19.285 87.4619 19.285C85.8716 19.285 84.8036 19.8028 84.2581 20.8383C83.953 21.4209 83.8004 22.3177 83.8004 23.529V30.755H79.8199V15.6373H83.5924V18.2725C84.2026 17.2647 84.7343 16.5758 85.1873 16.206C85.927 15.5865 86.8887 15.2767 88.0722 15.2767Z"
          fill="white"/>
    <path d="M68.8494 18.5915V15.776H70.9575V11.5597H74.8687V15.776H77.3236V18.5915H74.8687V26.5803C74.8687 27.1998 74.9473 27.5881 75.1045 27.7453C75.2617 27.8933 75.7425 27.9672 76.5469 27.9672C76.6671 27.9672 76.792 27.9672 76.9214 27.9672C77.0601 27.958 77.1942 27.9487 77.3236 27.9395V30.8937L75.4512 30.963C73.5835 31.0278 72.3075 30.7041 71.6233 29.9922C71.1794 29.5391 70.9575 28.841 70.9575 27.8979V18.5915H68.8494Z"
          fill="white"/>
    <path d="M54.8687 24.4444C54.9981 25.3783 55.2524 26.0764 55.6315 26.5387C56.325 27.3801 57.5131 27.8008 59.1959 27.8008C60.2038 27.8008 61.0221 27.6898 61.6508 27.4679C62.8436 27.0426 63.44 26.252 63.44 25.0963C63.44 24.4213 63.1441 23.8989 62.5523 23.529C61.9606 23.1684 61.0313 22.8494 59.7646 22.572L57.6009 22.0866C55.4743 21.6058 54.0041 21.0834 53.1905 20.5193C51.8128 19.5762 51.1239 18.1014 51.1239 16.095C51.1239 14.2642 51.7896 12.7432 53.1211 11.532C54.4526 10.3207 56.4082 9.71506 58.9879 9.71506C61.1423 9.71506 62.9777 10.2883 64.494 11.4349C66.0197 12.5722 66.8195 14.2272 66.8935 16.4001H62.7881C62.7141 15.1704 62.1779 14.2966 61.1793 13.7788C60.5135 13.4367 59.686 13.2656 58.6966 13.2656C57.5963 13.2656 56.7179 13.4875 56.0614 13.9314C55.4049 14.3752 55.0767 14.9947 55.0767 15.7899C55.0767 16.5203 55.4003 17.0659 56.0476 17.4265C56.4636 17.6669 57.3513 17.9489 58.7105 18.2725L62.2333 19.1185C63.7775 19.4884 64.9425 19.9831 65.7284 20.6026C66.9489 21.5642 67.5592 22.9557 67.5592 24.7773C67.5592 26.645 66.8426 28.1984 65.4094 29.4374C63.9855 30.6671 61.9698 31.282 59.3624 31.282C56.6994 31.282 54.6051 30.6764 53.0795 29.4651C51.5539 28.2446 50.791 26.571 50.791 24.4444H54.8687Z"
          fill="white"/>
</svg>
